PathFileType	4	(X/Y/Z)	C:\Users\Basilio\Documents\Thesis Gigler\squatting_fais\c3dfiles\047\SLS_pre_front3\markers_experimental.trc
DataRate	CameraRate	NumFrames	NumMarkers	Units	OrigDataRate	OrigDataStartFrame	OrigNumFrames
200.000000	200.000000	4	60	mm	200.000000	502	1340
Frame#	Time	FHD			LBHD			RBHD			C7			T10			CLAV			LSHO			LUUPA			LMUPA			LDUPA			LLEP			LMEP			LRAD			LUL			LRFIN			RSHO			RUPA1			RMUPA			RDUPA			RLEP			RMEP			RRAD			RUL			RUFIN			LASI			RASI			USACR			LSACR			RSACR			LTHI1			LTHI2			LTHI3			LTHI4			LLFC			LMFC			LTIB1			LTIB2			LTIB3			LTIB4			LLMAL			LMMAL			LMT1			LMT2			LMT5			RTHI			RTHI2			RTHI3			RTHI4			RLFC			RMFC			RTIB1			RTIB2			RTIB3			RTIB4			RLMAL			RMMAL			RHEE			RMT1			RMT2			RMT5			
		X1	Y1	Z1	X2	Y2	Z2	X3	Y3	Z3	X4	Y4	Z4	X5	Y5	Z5	X6	Y6	Z6	X7	Y7	Z7	X8	Y8	Z8	X9	Y9	Z9	X10	Y10	Z10	X11	Y11	Z11	X12	Y12	Z12	X13	Y13	Z13	X14	Y14	Z14	X15	Y15	Z15	X16	Y16	Z16	X17	Y17	Z17	X18	Y18	Z18	X19	Y19	Z19	X20	Y20	Z20	X21	Y21	Z21	X22	Y22	Z22	X23	Y23	Z23	X24	Y24	Z24	X25	Y25	Z25	X26	Y26	Z26	X27	Y27	Z27	X28	Y28	Z28	X29	Y29	Z29	X30	Y30	Z30	X31	Y31	Z31	X32	Y32	Z32	X33	Y33	Z33	X34	Y34	Z34	X35	Y35	Z35	X36	Y36	Z36	X37	Y37	Z37	X38	Y38	Z38	X39	Y39	Z39	X40	Y40	Z40	X41	Y41	Z41	X42	Y42	Z42	X43	Y43	Z43	X44	Y44	Z44	X45	Y45	Z45	X46	Y46	Z46	X47	Y47	Z47	X48	Y48	Z48	X49	Y49	Z49	X50	Y50	Z50	X51	Y51	Z51	X52	Y52	Z52	X53	Y53	Z53	X54	Y54	Z54	X55	Y55	Z55	X56	Y56	Z56	X57	Y57	Z57	X58	Y58	Z58	X59	Y59	Z59	X60	Y60	Z60	

503	2.51	-151.0915832519532	1578.541870117188	-1061.387451171875	-329.7109680175782	1553.390380859375	-1093.86279296875	-312.0387268066407	1554.43701171875	-946.5601196289065	-373.4219360351563	1383.5869140625	-1019.275512695313	-449.0038146972657	1084.947875976563	-997.3488769531252	-227.4940032958985	1313.5546875	-1047.99609375	-307.0191955566407	1362.36328125	-1184.61376953125	-230.8441162109376	1293.263671875	-1320.6689453125	-201.2919158935547	1332.386352539063	-1314.804931640625	-168.1692962646485	1298.749877929688	-1350.485595703125	-108.5216598510742	1317.330200195313	-1372.680786132813	-78.70618438720705	1255.47998046875	-1330.982177734375	165.0171051025391	1319.48828125	-1388.869995117188	138.59228515625	1334.709106445313	-1462.977661132813	238.0615386962891	1337.6484375	-1423.83642578125	-262.1779785156251	1371.75390625	-900.7171630859377	-128.79248046875	1311.648071289063	-797.7310180664065	-103.6424789428711	1347.007202148438	-821.2619628906252	-59.27984619140626	1310.739868164063	-801.790222167969	7.500488281250002	1326.006469726563	-813.211608886719	14.19809627532959	1260.5986328125	-863.0988769531252	264.3425903320313	1332.475463867188	-894.2265625000002	264.3117980957032	1344.572387695313	-822.6395263671877	345.7006225585938	1352.297973632813	-887.868347167969	-309.7485961914063	847.336120605469	-1087.77197265625	-301.5986022949219	875.6651611328127	-861.677917480469	-484.5265197753907	940.0881958007815	-980.4050903320315	-495.7632141113282	908.8421020507815	-1006.111755371094	-490.349822998047	911.4514160156252	-948.968933105469	-324.7156982421876	700.3339843750001	-1160.197998046875	-249.435775756836	662.2249755859376	-1162.3935546875	-213.3123168945313	692.2395019531251	-1149.9111328125	-238.4132232666016	602.3052368164064	-1164.132080078125	-157.1090087890625	458.3645019531251	-1133.275024414063	-122.0901184082032	467.2462463378907	-1010.746887207031	-180.243881225586	298.3736267089844	-1017.043151855469	-198.1646118164063	251.1989746093751	-1087.675659179688	-191.5181274414063	246.3892669677735	-1039.576049804688	-241.283187866211	188.9436950683594	-1005.115661621094	-325.9077758789063	116.2838973999024	-1050.559692382813	-304.9778442382813	136.1108856201172	-961.8452758789065	-189.2558746337891	63.31032180786134	-976.8144531250002	-188.7772674560547	60.87898635864259	-1021.356323242188	-236.1564941406251	46.83372879028321	-1067.368408203125	-289.7716674804688	719.2037963867189	-764.2749633789064	-223.5871582031251	711.1727905273439	-771.0301513671877	-204.2656555175782	734.8059082031251	-784.227233886719	-183.1748352050782	637.8355102539064	-777.276794433594	-72.46099090576173	544.8669433593751	-804.3067626953127	-64.42479705810548	543.8277587890626	-929.261901855469	29.69766426086426	461.7539062500001	-830.4202880859377	32.08514404296876	362.7854614257813	-781.653503417969	65.08193206787111	385.6068725585939	-806.9605712890627	94.6604690551758	349.4729003906251	-842.0131835937502	132.0753936767578	194.0187377929688	-803.7647094726565	133.0215606689453	210.3926849365235	-894.5354003906252	90.8270950317383	132.8363037109375	-845.0376586914065	283.0881042480469	205.5674591064454	-901.1423339843752	288.5877380371094	217.0985412597657	-856.4566040039065	266.4918212890626	179.519271850586	-793.456481933594	
504	2.515	-150.6056518554688	1577.466918945313	-1061.402954101563	-329.3022766113282	1552.363525390625	-1093.927490234375	-311.9373779296876	1553.297973632813	-946.591491699219	-373.2438659667969	1382.468383789063	-1019.323974609375	-449.256072998047	1083.93115234375	-997.4748535156252	-227.3994903564454	1312.55859375	-1047.985229492188	-306.5461425781251	1361.183471679688	-1184.742919921875	-230.8180389404297	1292.256591796875	-1320.640502929688	-200.8497924804688	1331.552490234375	-1315.279052734375	-168.0761108398438	1297.8671875	-1350.470336914063	-107.8309631347657	1315.63720703125	-1373.115966796875	-78.58711242675783	1253.666381835938	-1330.6572265625	165.3272705078125	1318.24755859375	-1388.97119140625	138.8168487548828	1333.3408203125	-1463.040771484375	238.6327667236329	1336.440185546875	-1423.832641601563	-261.8442077636719	1370.5087890625	-900.872741699219	-128.7301940917969	1310.6103515625	-797.7460937500002	-103.4247207641602	1345.976806640625	-821.2388916015627	-59.3209915161133	1309.58056640625	-801.8740844726565	7.407824993133547	1324.645629882813	-813.1435546875002	14.3158540725708	1259.12744140625	-862.336120605469	261.2616577148438	1329.609985351563	-891.6376953125002	264.2724609375001	1343.287231445313	-822.416442871094	346.2559204101563	1351.173217773438	-888.9317016601565	-310.4418334960938	846.0679931640627	-1087.526611328125	-301.7627563476563	874.8322753906252	-861.6533203125002	-484.6192016601564	939.144714355469	-980.455505371094	-495.7829895019532	907.693298339844	-1006.140319824219	-490.4668884277345	910.5311279296877	-948.955505371094	-324.7718811035157	699.4082031250001	-1160.249145507813	-249.5207061767579	661.3753662109376	-1162.6044921875	-213.5621643066407	691.6521606445314	-1150.113891601563	-238.3801269531251	601.7518310546876	-1164.239624023438	-156.2729949951172	458.2324829101564	-1133.397583007813	-121.7381896972657	467.037322998047	-1010.768798828125	-179.9197692871094	298.0544738769532	-1017.179077148438	-197.9288940429688	250.8704376220704	-1087.59375	-191.36572265625	246.2416687011719	-1039.57568359375	-241.2119140625001	188.8616027832032	-1005.073669433594	-325.7948913574219	116.1494140625	-1050.537841796875	-304.9579162597657	136.024642944336	-961.809509277344	-189.3655090332032	63.24733734130861	-976.7063598632815	-188.7105255126953	60.95632934570314	-1021.402709960938	-236.2042388916016	46.81734466552735	-1067.271728515625	-289.9214172363282	718.4181518554689	-764.3835449218751	-223.664779663086	710.3579711914064	-770.9818115234377	-204.5629272460938	733.8645629882814	-784.1365356445315	-183.318115234375	637.2640380859376	-777.3342895507815	-72.44468688964845	544.1015625000001	-804.4486083984377	-64.4239959716797	543.3132324218751	-929.3120117187502	29.77093124389649	461.1676025390626	-830.255310058594	32.7536964416504	362.2268981933594	-782.2830200195315	65.32659149169923	385.0182189941407	-806.952819824219	94.82052612304689	348.8515319824219	-841.8576660156252	132.5085144042969	193.6470031738282	-803.947448730469	133.4073181152344	209.9296875000001	-894.4951171875002	91.63490295410158	131.9772186279297	-845.3483886718752	283.6399536132813	205.4569244384766	-901.1903076171877	288.9763793945313	216.9201049804688	-856.582214355469	266.9325256347657	179.2492218017578	-793.5405273437502	
505	2.52	-150.3642120361328	1576.444946289063	-1061.181762695313	-329.0260009765626	1551.287841796875	-1093.97900390625	-311.5287170410157	1552.249267578125	-946.4612426757815	-373.0470275878907	1381.539428710938	-1019.359069824219	-449.3261718750001	1083.063232421875	-997.560974121094	-227.1360778808594	1311.41259765625	-1048.1005859375	-306.3280029296876	1360.293334960938	-1184.914916992188	-230.3314056396485	1291.188842773438	-1320.727172851563	-201.1292114257813	1330.513427734375	-1314.920043945313	-167.8841857910157	1296.845458984375	-1350.486206054688	-107.4808120727539	1314.68505859375	-1373.115112304688	-78.11058807373048	1252.896850585938	-1330.211059570313	165.8570709228516	1317.529052734375	-1388.787109375	139.0699157714844	1332.383666992188	-1462.946655273438	238.8330688476563	1335.545532226563	-1423.932495117188	-261.7504272460938	1369.455322265625	-900.8533325195315	-128.7228546142578	1309.331787109375	-797.613464355469	-103.4304885864258	1344.530395507813	-821.2687988281252	-59.39472961425783	1308.362182617188	-801.330017089844	7.52739191055298	1323.406860351563	-812.8378906250002	14.35945987701416	1258.0341796875	-863.0320434570315	261.3469238281251	1328.057495117188	-891.218200683594	264.3153076171876	1341.583862304688	-822.1678466796877	346.2126770019532	1349.317504882813	-888.243835449219	-309.1111145019532	845.176696777344	-1087.767333984375	-302.0346069335938	873.8608398437502	-861.6138916015627	-484.6129150390626	938.5864257812502	-980.3017578125002	-496.1929016113282	906.6187744140627	-1006.173950195313	-490.7979736328126	909.4434204101565	-948.9842529296877	-324.7169189453126	698.1565551757814	-1160.294067382813	-249.6493225097657	660.7149658203126	-1162.661865234375	-213.9195556640626	690.9666748046876	-1150.11279296875	-238.3016662597657	601.2185058593751	-1164.30517578125	-155.7595367431641	457.8596801757814	-1133.599731445313	-121.2109680175782	466.6036682128907	-1011.020446777344	-179.4883117675782	297.8414001464844	-1017.338684082031	-202.5381469726563	248.4735260009766	-1085.677490234375	-190.7880401611328	245.9398498535157	-1039.731689453125	-241.1470794677735	188.79541015625	-1005.084228515625	-325.7338867187501	116.0816879272461	-1050.57275390625	-304.8471679687501	136.0856018066407	-961.8571777343752	-189.2740783691407	63.32930374145509	-976.7974853515627	-188.7668609619141	60.88412475585939	-1021.363403320313	-236.2950134277344	46.79615783691407	-1067.237426757813	-289.9867248535157	717.5013427734376	-764.2319946289064	-223.7263183593751	709.6267700195314	-771.7335205078127	-204.6371765136719	733.2277832031251	-784.2307739257815	-183.3350677490235	636.7017211914064	-777.3885498046877	-72.44521331787111	543.5829467773439	-804.4478759765627	-63.10949325561525	543.0550537109376	-929.4445800781252	29.97096824645997	460.6849975585939	-830.4954223632815	32.91359329223634	361.4784545898438	-782.2832031250002	65.43721008300783	384.5894775390626	-806.9127197265627	95.21417236328126	348.3210144042969	-842.1251220703127	132.9459381103516	193.430160522461	-804.0339355468752	133.741195678711	209.5092163085938	-894.5051269531252	92.18562316894533	131.4899291992188	-845.2169189453127	283.7323608398438	205.1412811279297	-901.043151855469	289.3412780761719	216.6294860839844	-856.6682128906252	267.3918762207032	178.9381866455078	-793.6206054687502	
506	2.525	-150.2165832519532	1574.702270507813	-1061.344116210938	-328.8286743164063	1550.324829101563	-1094.016967773438	-311.0887756347657	1551.217895507813	-946.9537353515627	-372.7782592773438	1380.505004882813	-1019.484558105469	-449.0093078613282	1082.0068359375	-997.744567871094	-227.0311279296876	1310.211669921875	-1048.136108398438	-306.0617980957032	1359.234985351563	-1184.883056640625	-230.0617828369141	1289.998046875	-1320.837036132813	-200.6991577148438	1329.53173828125	-1315.0283203125	-167.5153961181641	1295.526611328125	-1350.703491210938	-107.9532775878907	1313.931884765625	-1372.964233398438	-77.98178100585939	1251.920654296875	-1330.961181640625	165.9209899902344	1316.151245117188	-1388.880981445313	139.2220153808594	1331.194458007813	-1463.001220703125	239.0085754394532	1334.500366210938	-1423.7763671875	-261.4735107421876	1368.367309570313	-901.028259277344	-128.7241821289063	1308.312255859375	-797.3616333007815	-103.2800598144532	1343.602294921875	-821.3740844726565	-59.32613372802736	1306.909423828125	-801.4875488281252	7.723213195800783	1322.103759765625	-813.0344848632815	14.40467262268067	1256.781005859375	-862.9677734375002	261.4549560546876	1326.720581054688	-891.131530761719	264.5717468261719	1340.172241210938	-821.9456787109377	346.6214599609376	1348.309936523438	-888.4781494140627	-310.5461425781251	844.602966308594	-1088.086547851563	-302.0104980468751	873.1888427734377	-861.5609130859377	-485.100067138672	937.5110473632815	-980.4512329101565	-495.6893005371095	905.3121337890627	-1006.415832519531	-491.0289611816407	908.7373657226565	-948.9688110351565	-324.9808654785157	697.4555664062501	-1160.36083984375	-249.8819122314454	660.1317749023439	-1162.732788085938	-213.9088287353516	690.4848022460939	-1150.3876953125	-238.2784271240235	600.4467163085939	-1164.409301757813	-155.2519989013672	457.545867919922	-1133.813110351563	-120.5095825195313	465.9569396972657	-1011.194763183594	-178.9781036376953	297.4801025390626	-1017.471374511719	-202.4410400390626	248.1491241455079	-1085.6044921875	-190.6838531494141	245.5353240966797	-1039.582885742188	-241.0710754394532	188.735595703125	-1005.050964355469	-325.6921997070313	116.0260086059571	-1050.58935546875	-304.8581848144532	136.0183258056641	-961.8751220703127	-189.3265228271485	63.23936080932619	-976.7679443359377	-188.7307281494141	60.89839172363283	-1021.30859375	-236.3915252685547	46.76622009277344	-1067.1962890625	-290.2046813964844	716.7045898437501	-763.9797973632814	-223.7366943359376	709.0814208984376	-771.1594238281252	-204.7711944580079	732.6238403320314	-784.1202392578127	-183.2030181884766	635.5958251953126	-777.4238281250002	-72.27230834960939	542.9786987304689	-804.5871582031252	-63.70180892944337	542.0022583007814	-929.1069335937502	30.19352340698243	460.1385192871095	-830.713562011719	33.12090682983399	361.0047607421876	-782.1814575195315	65.48489379882814	384.2242736816407	-806.9052734375002	95.41883087158205	347.9121704101563	-842.0850830078127	133.193588256836	193.065414428711	-803.8237915039065	134.129638671875	208.9288024902344	-894.4655761718752	92.76875305175783	131.0101318359375	-845.319030761719	284.5455932617188	204.9132080078126	-900.9741210937502	289.8331909179688	216.2618103027344	-856.7419433593752	267.9497680664063	178.8357696533203	-793.8513183593752	
